<?xml version="1.0" encoding="UTF-8" standalone="no"?>
<!-- Created with Inkscape (http://www.inkscape.org/) -->

<svg
   xmlns:dc="http://purl.org/dc/elements/1.1/"
   xmlns:cc="http://creativecommons.org/ns#"
   xmlns:rdf="http://www.w3.org/1999/02/22-rdf-syntax-ns#"
   xmlns:svg="http://www.w3.org/2000/svg"
   xmlns="http://www.w3.org/2000/svg"
   xmlns:xlink="http://www.w3.org/1999/xlink"
   xmlns:sodipodi="http://sodipodi.sourceforge.net/DTD/sodipodi-0.dtd"
   xmlns:inkscape="http://www.inkscape.org/namespaces/inkscape"
   width="1312"
   height="276"
   viewBox="0 0 347.13333 73.025001"
   version="1.1"
   id="svg8"
   inkscape:version="0.92.2 2405546, 2018-03-11"
   sodipodi:docname="logo.svg">
  <defs
     id="defs2">
    <linearGradient
       id="linearGradient4626"
       inkscape:collect="always">
      <stop
         id="stop4622"
         offset="0"
         style="stop-color:#000000;stop-opacity:1;" />
      <stop
         style="stop-color:#ab5f07;stop-opacity:1"
         offset="0.55618107"
         id="stop4630" />
      <stop
         style="stop-color:#ffffff;stop-opacity:1"
         offset="0.66666669"
         id="stop4628" />
      <stop
         id="stop4632"
         offset="0.75751036"
         style="stop-color:#6984a6;stop-opacity:1;" />
      <stop
         id="stop4624"
         offset="1"
         style="stop-color:#86a8d3;stop-opacity:1" />
    </linearGradient>
    <inkscape:path-effect
       effect="bend_path"
       id="path-effect4610"
       is_visible="true"
       bendpath="m 6.3496094,271.60059 c 0,0 80.4337246,-25.40053 167.2170606,-25.40053 86.78333,0 167.21653,25.40053 167.21653,25.40053"
       prop_scale="1"
       scale_y_rel="false"
       vertical="false"
       bendpath-nodetypes="ccc" />
    <linearGradient
       inkscape:collect="always"
       id="linearGradient4601">
      <stop
         style="stop-color:#000000;stop-opacity:1;"
         offset="0"
         id="stop4597" />
      <stop
         style="stop-color:#000000;stop-opacity:0;"
         offset="1"
         id="stop4599" />
    </linearGradient>
    <linearGradient
       inkscape:collect="always"
       id="linearGradient4593">
      <stop
         style="stop-color:#000000;stop-opacity:1;"
         offset="0"
         id="stop4589" />
      <stop
         style="stop-color:#000000;stop-opacity:0;"
         offset="1"
         id="stop4591" />
    </linearGradient>
    <inkscape:path-effect
       effect="bend_path"
       id="path-effect865"
       is_visible="true"
       bendpath="m 8.4666666,271.59998 c 0,0 78.3166674,-25.39993 169.3333334,-25.4 82.55,7e-5 160.86666,25.4 160.86666,25.4"
       prop_scale="1"
       scale_y_rel="false"
       vertical="false"
       bendpath-nodetypes="ccc" />
    <linearGradient
       inkscape:collect="always"
       xlink:href="#linearGradient4593"
       id="linearGradient4595"
       x1="2.1894427"
       y1="258.62185"
       x2="343.80917"
       y2="258.62185"
       gradientUnits="userSpaceOnUse" />
    <linearGradient
       inkscape:collect="always"
       xlink:href="#linearGradient4601"
       id="linearGradient4603"
       x1="173.56667"
       y1="347.79993"
       x2="173.56667"
       y2="246.20006"
       gradientUnits="userSpaceOnUse" />
    <linearGradient
       inkscape:collect="always"
       xlink:href="#linearGradient4626"
       id="linearGradient4608"
       gradientUnits="userSpaceOnUse"
       x1="173.56667"
       y1="347.79993"
       x2="173.56667"
       y2="195.40013" />
  </defs>
  <sodipodi:namedview
     id="base"
     pagecolor="#ffffff"
     bordercolor="#666666"
     borderopacity="1.0"
     inkscape:pageopacity="0.0"
     inkscape:pageshadow="2"
     inkscape:zoom="0.70710678"
     inkscape:cx="423.8881"
     inkscape:cy="262.78942"
     inkscape:document-units="px"
     inkscape:current-layer="layer1"
     showgrid="true"
     units="px"
     inkscape:window-width="1920"
     inkscape:window-height="1064"
     inkscape:window-x="0"
     inkscape:window-y="16"
     inkscape:window-maximized="0">
    <inkscape:grid
       type="xygrid"
       id="grid815"
       dotted="false"
       empspacing="164"
       spacingy="0.30975565" />
  </sodipodi:namedview>
  <metadata
     id="metadata5">
    <rdf:RDF>
      <cc:Work
         rdf:about="">
        <dc:format>image/svg+xml</dc:format>
        <dc:type
           rdf:resource="http://purl.org/dc/dcmitype/StillImage" />
        <dc:title></dc:title>
      </cc:Work>
    </rdf:RDF>
  </metadata>
  <g
     inkscape:label="Layer 1"
     inkscape:groupmode="layer"
     id="layer1"
     transform="translate(0,-223.97499)">
    <path
       style="color:#000000;font-style:normal;font-variant:normal;font-weight:normal;font-stretch:normal;font-size:medium;line-height:normal;font-family:sans-serif;font-variant-ligatures:normal;font-variant-position:normal;font-variant-caps:normal;font-variant-numeric:normal;font-variant-alternates:normal;font-feature-settings:normal;text-indent:0;text-align:start;text-decoration:none;text-decoration-line:none;text-decoration-style:solid;text-decoration-color:#000000;letter-spacing:normal;word-spacing:normal;text-transform:none;writing-mode:lr-tb;direction:ltr;text-orientation:mixed;dominant-baseline:auto;baseline-shift:baseline;text-anchor:start;white-space:normal;shape-padding:0;clip-rule:nonzero;display:inline;overflow:visible;visibility:visible;opacity:1;isolation:auto;mix-blend-mode:normal;color-interpolation:sRGB;color-interpolation-filters:linearRGB;solid-color:#000000;solid-opacity:1;vector-effect:none;fill:url(#linearGradient4608);fill-opacity:1;fill-rule:nonzero;stroke:#c0c0c0;stroke-width:1.0583334;stroke-linecap:round;stroke-linejoin:round;stroke-miterlimit:4;stroke-dasharray:none;stroke-dashoffset:0;stroke-opacity:1;color-rendering:auto;image-rendering:auto;shape-rendering:auto;text-rendering:auto;enable-background:accumulate"
       d="m 2.840317,252.7547 c -0.2680823,0.44819 -0.5371241,0.89753 -0.806637,1.34803 0,0 0,0 -10e-8,0 -0.1821345,0.30448 -0.3722864,0.61196 -0.569276,0.92245 0,0 -1e-7,0 -1e-7,0 -0.050081,0.0789 -0.104388,0.15927 -0.1627684,0.24099 -0.015984,0.021 -0.034094,0.0426 -0.054309,0.0649 -0.034289,0.0503 -0.068521,0.10064 -0.1026954,0.15094 l 5.1079027,16.14808 c 0.049065,0.0251 0.098072,0.0502 0.147021,0.0753 0.01943,0.01 0.038851,0.02 0.058278,0.0301 0.07663,0.0395 0.1531421,0.0792 0.2296575,0.11889 0,0 1e-7,0 1e-7,0 0.3009683,0.1562 0.6008316,0.31359 0.900542,0.47146 1e-7,0 1e-7,0 2e-7,0 0.4434226,0.23357 0.8855045,0.46852 1.3266386,0.70456 0.5539469,-0.16596 1.1092673,-0.33019 1.6657543,-0.49334 l 1e-6,0 c 3.402563,-0.99756 6.823253,-1.94651 10.255877,-2.86523 3.585972,-0.95975 7.181422,-1.88519 10.785344,-2.77813 l 3.054104,12.32635 c -3.529612,0.87445 -7.048713,1.78028 -10.556299,2.71926 -3.357952,0.89903 -6.682156,1.82093 -9.966416,2.78408 l -10e-7,0 c -0.537208,0.15755 -1.068565,0.31467 -1.593864,0.47202 l 1.215206,4.05625 c 0.515746,-0.15448 1.039113,-0.30924 1.569892,-0.46491 3.244814,-0.95168 6.536846,-1.86457 9.8699,-2.75702 l 1e-6,0 c 4.150615,-1.11122 8.318564,-2.17584 12.502145,-3.1969 0.506503,-0.85005 1.015765,-1.69956 1.527742,-2.54851 l -3.959433,-16.46412 c -0.860634,-0.51887 -1.72331,-1.03601 -2.58806,-1.55136 -4.329697,1.05691 -8.648592,2.16009 -12.954982,3.31257 -3.328717,0.89082 -6.653117,1.81193 -9.96767,2.77973 L 6.214434,256.17096 c 3.4268836,-1.0004 6.843393,-1.94729 10.244,-2.85707 4.399844,-1.17724 8.809295,-2.30354 13.226651,-3.38197 l -1.003672,-4.11166 c -4.446571,1.0856 -8.886203,2.21961 -13.317193,3.4051 -3.557079,0.95155 -7.1385865,1.94558 -10.7383261,3.00049 l -1.3e-6,0 c -0.5886199,0.17249 -1.1838805,0.34856 -1.7855756,0.52885 z m 34.449876,-8.97463 c -0.56022,0.85232 -1.118034,1.70532 -1.673399,2.55901 l 7.697547,32.98104 c 1.357644,-0.31681 2.716775,-0.62922 4.077337,-0.93732 l -7.013469,-30.9662 c 4.685829,-1.06141 9.378971,-2.07196 14.077411,-3.03526 2.457817,-0.5056 4.919383,-0.99904 7.384545,-1.47985 l 2.426789,12.46838 c -2.422767,0.4717 -4.84275,0.95576 -7.259796,1.45172 -2.506393,0.51404 -5.01027,1.04147 -7.511308,1.58287 l 0.895887,4.13861 c 2.485682,-0.53808 4.974521,-1.06237 7.466197,-1.57345 3.102338,-0.63602 6.209119,-1.25238 9.320012,-1.84806 0.568665,-0.82765 1.139619,-1.65469 1.712893,-2.48109 l -3.13619,-16.64663 c -0.851383,-0.55708 -1.70456,-1.11265 -2.559491,-1.66669 -3.203117,0.61495 -6.399867,1.25131 -9.589919,1.90808 -5.444975,1.11624 -10.884352,2.29601 -16.315046,3.54484 z m 34.585339,-7.06348 c -0.599937,0.82403 -1.197399,1.64878 -1.792414,2.47424 l 6.068332,33.33354 c 1.374652,-0.24992 2.749774,-0.4956 4.125334,-0.73695 L 74.783138,240.5013 c 7.208118,-1.26653 14.444405,-2.41916 21.705072,-3.44625 l 4.45493,31.44801 c 1.37983,-0.1958 2.75995,-0.3868 4.14032,-0.57291 l -4.51713,-33.57529 c -0.82374,-0.60103 -1.649701,-1.20047 -2.477844,-1.79832 -8.777699,1.20985 -17.517534,2.60323 -26.212954,4.16005 z m 35.003038,-5.30796 c -0.64715,0.79035 -1.29152,1.58173 -1.93313,2.37413 l 4.27797,33.60408 c 0.77958,0.61214 1.55669,1.22581 2.33131,1.84102 8.2541,-1.02368 16.51416,-1.8668 24.77364,-2.50926 l -0.32704,-4.22051 c -7.63293,0.59321 -15.26358,1.35592 -22.88689,2.27267 l -3.5299,-29.42657 c 8.01762,-0.95948 16.06199,-1.75862 24.12807,-2.38192 l -0.3269,-4.21856 c -8.86702,0.68466 -17.70492,1.57967 -26.50713,2.66492 z m 35.38362,-3.27873 c -0.69762,0.74869 -1.39214,1.49872 -2.0836,2.25007 l 2.2058,33.78283 c 0.73724,0.65872 1.47159,1.31904 2.20301,1.98097 8.25837,-0.50646 16.51398,-0.80556 24.76027,-0.8772 l -0.0393,-4.23353 c -7.62891,0.0673 -15.26287,0.3267 -22.89684,0.7626 l -1.68599,-29.57292 c 8.08476,-0.46024 16.18893,-0.73762 24.30747,-0.81664 l -0.0393,-4.23158 c -8.93307,0.088 -17.84573,0.41319 -26.73145,0.9554 z m 35.66801,-0.95742 c -0.75087,0.69792 -1.49871,1.39756 -2.24347,2.09893 l -0.14707,33.86425 c 0.68734,0.70823 1.37154,1.418 2.05262,2.12927 8.24551,0.0681 16.50039,0.36374 24.75808,0.86688 l 0.25677,-4.22493 c -7.63393,-0.46487 -15.26827,-0.75447 -22.89798,-0.85332 l 0.39589,-29.62394 c 8.11613,0.11158 16.21749,0.42022 24.29902,0.91047 l 0.25666,-4.22299 c -8.88547,-0.53874 -17.79782,-0.86031 -26.73052,-0.94462 z m 35.60746,1.55506 c -0.79264,0.64605 -1.58267,1.29375 -2.37005,1.94311 l -2.46741,33.76636 c 1.38191,0.1013 2.76381,0.20824 4.14567,0.32073 l 2.56643,-31.63797 c 7.32934,0.59285 14.64039,1.32995 21.92937,2.19968 l -3.7712,31.53019 c 1.3813,0.16568 2.7624,0.33645 4.14328,0.51221 l 4.26655,-33.6054 c -0.64189,-0.79218 -1.28654,-1.58335 -1.93397,-2.37347 -8.80278,-1.08225 -17.64119,-1.9741 -26.50867,-2.65544 z m 35.29932,3.80041 c -0.82796,0.59812 -1.65373,1.19783 -2.47728,1.79913 l -4.50592,33.57668 c 1.3804,0.18564 2.76054,0.37618 4.14039,0.57153 l 4.44462,-31.44938 c 7.26113,1.02472 14.49791,2.17508 21.70657,3.43946 l -2.1936,12.51436 c -2.38814,-0.41865 -4.7787,-0.82457 -7.17153,-1.21731 -0.73098,1.05562 -1.45922,2.11238 -2.18467,3.17029 1.36657,2.25628 2.71653,4.51671 4.05039,6.78094 l -1.59662,9.41712 c 1.37635,0.23329 2.75228,0.47099 4.12777,0.71301 l 1.79035,-10.1667 c -0.085,-0.47593 -0.17032,-0.95186 -0.25599,-1.42778 -0.69076,-1.1831 -1.38583,-2.36522 -2.0853,-3.54631 1.56896,0.26869 3.137,0.54296 4.70408,0.8227 0.8272,-0.56955 1.65638,-1.13759 2.4875,-1.70413 l 3.02934,-16.66769 c -0.59594,-0.82541 -1.19432,-1.65011 -1.79519,-2.47408 -8.69613,-1.55425 -17.43661,-2.9449 -26.21491,-4.15184 z m 34.896,5.75988 c -0.8548,0.55429 -1.70784,1.1101 -2.55908,1.66743 l -6.26285,33.29519 c 0.55668,0.82283 1.11112,1.64627 1.66337,2.4703 3.10198,0.59175 6.20156,1.20449 9.29839,1.83714 2.36885,0.48611 4.7338,0.98407 7.09456,1.49442 0.52468,-0.0984 1.04963,-0.19618 1.57486,-0.29334 3.32471,-2.16251 6.67855,-4.30079 10.06346,-6.41269 0.3136,-0.43919 0.62764,-0.87817 0.94212,-1.31695 l 3.84362,-16.49174 c -0.0934,-0.53384 -0.18733,-1.06769 -0.28173,-1.60155 -2.1945,-3.40657 -4.42868,-6.80266 -6.69968,-10.18774 -0.46369,-0.31256 -0.92789,-0.62464 -1.3926,-0.93624 -2.49514,-0.53934 -4.99177,-1.06477 -7.48957,-1.57683 -3.25809,-0.67077 -6.52316,-1.32027 -9.79487,-1.9474 z m 34.51727,7.48332 c -0.8839,0.51023 -1.76563,1.0223 -2.64521,1.53616 l -3.95417,16.4654 c 0.53152,0.85343 1.06043,1.70749 1.58668,2.56216 4.3657,1.06418 8.71931,2.17543 13.05903,3.33692 3.24025,0.86724 6.46986,1.76141 9.68363,2.69798 l -3.55295,12.19204 c -3.1044,-0.90487 -6.24408,-1.7739 -9.41384,-2.62254 -4.24486,-1.13637 -8.50659,-2.22416 -12.7834,-3.26656 l -1.00282,4.11388 c 4.24717,1.03513 8.47827,2.1151 12.6915,3.24309 l 0,0 c 3.33303,0.89246 6.62504,1.80534 9.86983,2.75702 l 0,0 c 0.46922,0.13762 0.93264,0.27452 1.39012,0.41114 0.49761,-0.28906 0.99316,-0.57772 1.48733,-0.86547 0,0 0,0 0,0 0.28094,-0.16357 0.55371,-0.32929 0.81928,-0.49646 0,0 0,0 0,0 0.0534,-0.0336 0.10422,-0.0681 0.15244,-0.10324 l 5.04896,-16.16337 c -0.0322,-0.0603 -0.0644,-0.12056 -0.0968,-0.18081 0,0 0,0 0,0 -0.16067,-0.29948 -0.32302,-0.59863 -0.48587,-0.89749 0,0 0,0 0,0 -0.28649,-0.52574 -0.57567,-1.05092 -0.86673,-1.57555 -0.4981,-0.1488 -0.99603,-0.29591 -1.49365,-0.44179 l 0,0 c -3.44199,-1.00903 -6.89484,-1.967 -10.35234,-2.89229 l 0,0 c -3.67772,-0.98424 -7.36456,-1.93252 -11.05946,-2.84673 l 3.05007,-12.32735 c 3.77049,0.93299 7.53503,1.90122 11.29256,2.9066 l 0,0 c 3.53217,0.94499 7.0815,1.93001 10.6418,2.97345 0.51466,0.15083 1.0333,0.30407 1.55576,0.46016 l 1.21139,-4.05535 c -0.53058,-0.15852 -1.05612,-0.31381 -1.57646,-0.4663 0,0 0,0 0,0 -3.59972,-1.0549 -7.18121,-2.04894 -10.73827,-3.00049 l 0,0 c -4.49784,-1.20337 -9.00459,-2.35371 -13.51845,-3.45421 z m -33.15894,-2.90896 c 2.53257,0.49321 5.06134,0.99977 7.58615,1.51915 2.18692,0.44838 4.3727,0.90699 6.55712,1.3762 1.93494,2.88014 3.84323,5.76818 5.72308,8.66377 l -3.3482,14.80407 c -2.88825,1.81655 -5.75406,3.65187 -8.59864,5.50462 -2.09282,-0.4496 -4.18863,-0.88953 -6.28723,-1.32013 -2.42709,-0.49627 -4.85613,-0.98037 -7.28696,-1.45177 1.88489,-9.69864 3.76979,-19.39727 5.65468,-29.09591 z m -205.986673,9.78324 0.71943,4.17487 c 5.629369,-0.97001 11.270657,-1.86828 16.921923,-2.68886 l -0.608601,-4.19215 c -5.689676,0.82586 -11.367907,1.72989 -17.032752,2.70614 z m 68.226433,-7.85305 0.2255,4.22663 c 7.20586,-0.3845 14.41842,-0.61609 21.63375,-0.68268 l -0.0394,-4.23354 c -7.27973,0.0681 -14.55434,0.30202 -21.8199,0.68959 z m 69.20352,1.16032 -0.35897,4.2182 c 5.68356,0.48388 11.36104,1.05743 17.03051,1.7147 l 0.48751,-4.2067 c -5.71085,-0.66159 -11.43118,-1.23897 -17.15905,-1.7262 z"
       id="path844"
       inkscape:connector-curvature="0"
       inkscape:path-effect="#path-effect4610"
       inkscape:original-d="m 8.4667969,252.55078 -2.1171875,2.11524 v 16.93359 l 2.1171875,2.11719 H 31.75 v 12.69922 H 8.4667969 v 4.23437 H 33.867188 l 2.115234,-2.11719 v -16.93359 l -2.115234,-2.11719 H 10.583984 V 256.7832 h 23.283204 v -4.23242 z m 33.8671871,0 -2.117187,2.11524 v 33.86718 h 4.232422 v -31.75 h 21.167969 v 12.69922 H 50.800781 v 4.23438 h 16.931641 l 2.117187,-2.11719 v -16.93359 l -2.117187,-2.11524 z m 33.865235,0 -2.115235,2.11524 v 33.86718 h 4.232422 v -31.75 h 21.166016 v 31.75 h 4.234378 v -33.86718 l -2.11719,-2.11524 z m 33.867191,0 -2.11719,2.11524 v 33.86718 l 2.11719,2.11719 h 25.40039 v -4.23437 H 112.18359 V 256.7832 h 23.28321 v -4.23242 z m 33.86718,0 -2.11718,2.11524 v 33.86718 l 2.11718,2.11719 h 25.40039 v -4.23437 h -23.2832 V 256.7832 h 23.2832 v -4.23242 z m 33.86719,0 -2.11719,2.11524 v 33.86718 l 2.11719,2.11719 h 25.39844 v -4.23437 h -23.2832 V 256.7832 h 23.2832 v -4.23242 z m 33.86524,0 -2.11524,2.11524 v 33.86718 h 4.23242 v -31.75 h 21.16602 v 31.75 h 4.23437 v -33.86718 l -2.11718,-2.11524 z m 33.86718,0 -2.11718,2.11524 v 33.86718 h 4.23437 v -31.75 h 21.16602 v 12.69922 h -7.14258 l -1.6211,3.47852 5.06055,6.02539 v 9.54687 h 4.23242 v -10.31836 l -0.49609,-1.36132 -2.63477,-3.13672 h 4.71875 l 2.11719,-2.11719 v -16.93359 l -2.11719,-2.11524 z m 33.86719,0 -2.11719,2.11524 v 33.86718 l 2.11719,2.11719 h 16.93359 l 1.4961,-0.62109 8.4668,-8.4668 0.61914,-1.49609 v -16.9336 l -0.61914,-1.49609 -8.4668,-8.4668 -1.4961,-0.61914 z m 33.86719,0 -2.11719,2.11524 v 16.93359 l 2.11719,2.11719 h 23.2832 v 12.69922 h -23.2832 v 4.23437 h 25.39844 l 2.11718,-2.11719 v -16.93359 l -2.11718,-2.11719 H 315.38281 V 256.7832 h 23.28321 v -4.23242 z m -31.75,4.23242 h 13.93945 l 7.22656,7.22852 v 15.17773 l -7.22656,7.22657 H 281.51758 Z M 80.433594,269.48242 v 4.23438 h 16.933594 v -4.23438 z m 67.468876,0 v 4.23438 h 21.43151 v -4.23438 z m 67.99792,0 v 4.23438 h 16.93359 v -4.23438 z"
       sodipodi:nodetypes="cccccccccccccccccccccccccccccccccccccccccccccccccccccccccccccccccccccccccccccccccccccccccccccccccccccccccccccccccccccccccccccccccccccccccccccccccccccccccccccc" />
  </g>
</svg>
